<svg width="40" height="40" viewBox="0 0 40 40" fill="none" xmlns="http://www.w3.org/2000/svg">
<rect width="40" height="40" rx="20" fill="#1F202E"/>
<g clip-path="url(#clip0_47_8652)">
<path d="M18.3335 14.1667C18.3335 13.7246 18.5091 13.3007 18.8217 12.9882C19.1342 12.6756 19.5581 12.5 20.0002 12.5C20.4422 12.5 20.8661 12.6756 21.1787 12.9882C21.4912 13.3007 21.6668 13.7246 21.6668 14.1667C22.6238 14.6192 23.4397 15.3236 24.0269 16.2044C24.6141 17.0852 24.9505 18.1092 25.0002 19.1667V21.6667C25.0629 22.1848 25.2464 22.6809 25.5358 23.1151C25.8253 23.5493 26.2127 23.9095 26.6668 24.1667H13.3335C13.7876 23.9095 14.175 23.5493 14.4645 23.1151C14.754 22.6809 14.9374 22.1848 15.0002 21.6667V19.1667C15.0498 18.1092 15.3862 17.0852 15.9735 16.2044C16.5607 15.3236 17.3765 14.6192 18.3335 14.1667" stroke="white" stroke-opacity="0.7" stroke-width="1.04167" stroke-linecap="round" stroke-linejoin="round"/>
<path d="M17.5 24.1667V25.0001C17.5 25.6631 17.7634 26.299 18.2322 26.7678C18.7011 27.2367 19.337 27.5001 20 27.5001C20.663 27.5001 21.2989 27.2367 21.7678 26.7678C22.2366 26.299 22.5 25.6631 22.5 25.0001V24.1667" stroke="white" stroke-opacity="0.7" stroke-width="1.04167" stroke-linecap="round" stroke-linejoin="round"/>
</g>
<defs>
<clipPath id="clip0_47_8652">
<rect width="20" height="20" fill="white" transform="translate(10 10)"/>
</clipPath>
</defs>
</svg>
